# xmcd
#
# Track frame offsets:
#	150
#	13355
#	26977
#	42020
#	58727
#	70842
#	84077
#	99927
#	111822
#	127425
#	140720
#	155432
#
# Disc length: 2244 seconds
#
# Revision: 0
# Processed by: cddbd v1.5PL3 Copyright (c) Steve Scherf et al.
# Submitted via: dBpowerAMP V4.0
#
DISCID=a708c20c
DTITLE=Los Mier - Viva El Amor
DYEAR=1995
DGENRE=Latin
TTITLE0=Muñeca de Cartón
TTITLE1=Nadie Como Tu
TTITLE2=Que Viva El Amor
TTITLE3=Locos De Amor
TTITLE4=Nenita
TTITLE5=Echale Mas
TTITLE6=Cosa Triste
TTITLE7=El Flechazo
TTITLE8=Un Cuento De Amor
TTITLE9=Querida Amiga
TTITLE10=Y Me Dejaste Aqui
TTITLE11=Dos Para Siempre Dos
EXTD=
EXTT0=
EXTT1=
EXTT2=
EXTT3=
EXTT4=
EXTT5=
EXTT6=
EXTT7=
EXTT8=
EXTT9=
EXTT10=
EXTT11=
PLAYORDER=
